# xmcd
#
# Track frame offsets: 
#        150
#        18028
#        36783
#        53733
#        65308
#        89587
#        103895
#        125158
#        138253
#        156791
#        168212
#
# Disc length: 2560 seconds
#
# Revision: 0
# Processed by: cddbd v1.5.2PL0 Copyright (c) Steve Scherf et al.
# Submitted via: ExactAudioCopy v0.95b4
#
DISCID=8c09fe0b
DTITLE=Ronee Blakley - Ronee Blakley
DYEAR=1972
DGENRE=Country
TTITLE0=Dues
TTITLE1=Sleepin' Sickness Blues
TTITLE2=Attachement
TTITLE3=Down to the River
TTITLE4=Gabriel
TTITLE5=I Lied
TTITLE6=Along the Shore
TTITLE7=Fred Hampton
TTITLE8=Cock O' the Walk
TTITLE9=Bluebird
TTITLE10=Graduation Tune
EXTD=
EXTT0=
EXTT1=
EXTT2=
EXTT3=
EXTT4=
EXTT5=
EXTT6=
EXTT7=
EXTT8=
EXTT9=
EXTT10=
PLAYORDER=
